<svg width="42" height="38" viewBox="0 0 42 38" fill="none" xmlns="http://www.w3.org/2000/svg">
<path d="M16 15C19.866 15 23 11.866 23 8C23 4.13401 19.866 1 16 1C12.134 1 9 4.13401 9 8C9 11.866 12.134 15 16 15Z" stroke="black" stroke-width="2" stroke-linecap="round" stroke-linejoin="round"/>
<path d="M29.6074 2C31.6403 3.2249 32.9998 5.45367 32.9998 8C32.9998 10.5463 31.6403 12.7751 29.6074 14" stroke="black" stroke-width="2" stroke-linecap="round" stroke-linejoin="round"/>
<path d="M1 35.8V37H31V35.8C31 31.3196 31 29.0794 30.1281 27.3681C29.3611 25.8628 28.1372 24.6389 26.6319 23.8719C24.9206 23 22.6804 23 18.2 23H13.8C9.31958 23 7.07937 23 5.36808 23.8719C3.86278 24.6389 2.63893 25.8628 1.87195 27.3681C1 29.0794 1 31.3196 1 35.8Z" stroke="black" stroke-width="2" stroke-linecap="round" stroke-linejoin="round"/>
<path d="M40.9999 37.0001V35.8001C40.9999 31.3197 40.9999 29.0795 40.128 27.3682C39.361 25.8629 38.1371 24.6391 36.6318 23.8721" stroke="black" stroke-width="2" stroke-linecap="round" stroke-linejoin="round"/>
</svg>
