<svg width="42" height="42" viewBox="0 0 42 42" fill="none" xmlns="http://www.w3.org/2000/svg">
<path d="M33.4288 30.5736L33.2882 30.749L33.4478 30.9074L41.2305 38.6329C41.231 38.6335 41.2316 38.6341 41.2322 38.6347C41.5643 38.9795 41.75 39.4399 41.75 39.919C41.75 40.3984 41.5641 40.859 41.2316 41.2039C41.0599 41.3768 40.8559 41.514 40.6311 41.6077C40.4058 41.7016 40.1642 41.75 39.9202 41.75C39.6761 41.75 39.4345 41.7016 39.2092 41.6077C38.984 41.5138 38.7795 41.3762 38.6076 41.2027L38.6069 41.202L30.8835 33.4727L30.725 33.3141L30.5501 33.4545C26.8315 36.4392 22.1116 37.8845 17.3608 37.4935C12.6101 37.1024 8.18954 34.9046 5.00822 31.3519C1.82689 27.7992 0.126589 23.1617 0.256981 18.3929C0.387374 13.6241 2.33855 9.08657 5.70924 5.71331C9.07994 2.34006 13.6139 0.387473 18.379 0.256986C23.144 0.1265 27.7779 1.82803 31.3278 5.01176C34.8778 8.19549 37.074 12.6194 37.4648 17.374C37.8556 22.1285 36.4113 26.8521 33.4288 30.5736ZM10.6316 31.3795C13.0887 33.0225 15.9775 33.8994 18.9326 33.8994C22.8954 33.8994 26.6958 32.3241 29.4978 29.5199C32.2998 26.7158 33.8739 22.9126 33.8739 18.947C33.8739 15.9898 32.9976 13.0989 31.3559 10.64C29.7141 8.18106 27.3807 6.26454 24.6505 5.1328C21.9203 4.00106 18.9161 3.70495 16.0177 4.28191C13.1193 4.85886 10.4571 6.28298 8.3675 8.37412C6.27794 10.4653 4.85495 13.1295 4.27845 16.03C3.70196 18.9304 3.99783 21.9368 5.12868 24.669C6.25953 27.4012 8.17456 29.7364 10.6316 31.3795Z" fill="#8C8C8C" stroke="white" stroke-width="0.5"/>
</svg>
